<svg width="29" height="26" viewBox="0 0 29 26" fill="none" xmlns="http://www.w3.org/2000/svg">
<path d="M2.69471 15.4741L12.9244 25.1014C13.349 25.5009 13.9094 25.7235 14.4925 25.7235C15.0756 25.7235 15.6361 25.5009 16.0607 25.1014L26.2904 15.4741C28.0114 13.859 28.9851 11.5934 28.9851 9.22513V8.89414C28.9851 4.90509 26.1262 1.50384 22.2257 0.847559C19.6442 0.413843 17.0174 1.26416 15.1719 3.12457L14.4925 3.80938L13.8132 3.12457C11.9677 1.26416 9.34089 0.413843 6.75941 0.847559C2.85888 1.50384 0 4.90509 0 8.89414V9.22513C0 11.5934 0.973717 13.859 2.69471 15.4741Z" fill="#BEBEBE"/>
</svg>
