<svg width="29" height="26" viewBox="0 0 29 26" fill="none" xmlns="http://www.w3.org/2000/svg">
<path d="M28.6946 12.3375C28.6946 18.746 22.3028 23.9387 14.4163 23.9387C12.347 23.9387 10.3837 23.5817 8.61009 22.9403C7.94637 23.4256 6.86433 24.0893 5.58151 24.647C4.24291 25.2271 2.63102 25.7235 1.03028 25.7235C0.667746 25.7235 0.344251 25.506 0.204814 25.1713C0.0653772 24.8367 0.143462 24.4574 0.394449 24.2008L0.411181 24.1841C0.427914 24.1674 0.450224 24.145 0.483689 24.106C0.545041 24.0391 0.639858 23.9331 0.756986 23.7881C0.985663 23.5092 1.29242 23.0965 1.60476 22.5834C2.16251 21.6575 2.69237 20.4416 2.79835 19.0751C1.1251 17.1788 0.137884 14.853 0.137884 12.3375C0.137884 5.92898 6.52969 0.736336 14.4163 0.736336C22.3028 0.736336 28.6946 5.92898 28.6946 12.3375Z" fill="#BEBEBE"/>
</svg>
