<svg width="30" height="26" viewBox="0 0 30 26" fill="none" xmlns="http://www.w3.org/2000/svg">
<path d="M17.9678 0.893622C17.3265 1.17806 16.9082 1.81944 16.9082 2.52217V6.09161H10.6617C5.2406 6.09161 0.845734 10.4865 0.845734 15.9075C0.845734 22.2265 5.39118 25.0486 6.43412 25.6175C6.57355 25.6956 6.72972 25.7235 6.88588 25.7235C7.4938 25.7235 7.98459 25.2271 7.98459 24.6248C7.98459 24.2065 7.74477 23.8216 7.43803 23.5372C6.91377 23.0408 6.19988 22.0648 6.19988 20.3693C6.19988 17.4134 8.59809 15.0152 11.554 15.0152H16.9082V18.5846C16.9082 19.2873 17.3209 19.9287 17.9678 20.2132C18.6148 20.4976 19.3622 20.3805 19.8864 19.912L28.81 11.8808C29.1837 11.5406 29.4012 11.0609 29.4012 10.5534C29.4012 10.0459 29.1892 9.56622 28.81 9.22601L19.8864 1.19479C19.3622 0.720728 18.6092 0.603606 17.9678 0.893622Z" fill="#BEBEBE"/>
</svg>
